<svg
    xmlns="http://www.w3.org/2000/svg"
    viewBox="0 0 75 75"
    id="vector">
    <path
        id="path"
        d="M 37.5 37.5 M 0 37.5 C 0 27.558 3.954 18.013 10.983 10.983 C 18.013 3.954 27.558 0 37.5 0 C 47.442 0 56.987 3.954 64.017 10.983 C 71.046 18.013 75 27.558 75 37.5 C 75 47.442 71.046 56.987 64.017 64.017 C 56.987 71.046 47.442 75 37.5 75 C 27.558 75 18.013 71.046 10.983 64.017 C 3.954 56.987 0 47.442 0 37.5"
        fill="#263d57"
        fill-opacity="0.16"/>
    <path
        id="path_1"
        d="M 37.5 37.5 M 9 37.5 C 9 29.944 12.005 22.69 17.347 17.347 C 22.69 12.005 29.944 9 37.5 9 C 45.056 9 52.31 12.005 57.653 17.347 C 62.995 22.69 66 29.944 66 37.5 C 66 45.056 62.995 52.31 57.653 57.653 C 52.31 62.995 45.056 66 37.5 66 C 29.944 66 22.69 62.995 17.347 57.653 C 12.005 52.31 9 45.056 9 37.5"
        fill="#ffffff"/>
    <path
        id="path_2"
        d="M 39.2 28.46 C 39.01 27.99 38.54 27.68 38.02 27.69 C 37.5 27.7 37.02 28.01 36.81 28.49 L 27.05 45.83 C 26.83 46.32 26.92 46.89 27.28 47.26 C 27.65 47.64 28.21 47.75 28.71 47.54 L 37.07 44.03 C 37.39 43.89 37.75 43.89 38.06 44.02 L 46.27 47.34 C 46.75 47.54 47.33 47.42 47.71 47.03 C 48.09 46.64 48.21 46.07 48 45.59 L 39.2 28.46 Z"
        fill="#4a90e2"/>
</svg>
