<?xml version="1.0" encoding="UTF-8" standalone="no"?>
<svg
   width="12.497967"
   height="18.851223"
   fill="none"
   version="1.1"
   id="svg7"
   sodipodi:docname="maplibregl-ctrl-logo.svg"
   xmlns:inkscape="http://www.inkscape.org/namespaces/inkscape"
   xmlns:sodipodi="http://sodipodi.sourceforge.net/DTD/sodipodi-0.dtd"
   xmlns="http://www.w3.org/2000/svg"
   xmlns:svg="http://www.w3.org/2000/svg">
  <defs
     id="defs7" />
  <sodipodi:namedview
     id="namedview7"
     pagecolor="#ffffff"
     bordercolor="#000000"
     borderopacity="0.25"
     inkscape:showpageshadow="2"
     inkscape:pageopacity="0.0"
     inkscape:pagecheckerboard="0"
     inkscape:deskcolor="#d1d1d1" />
  <path
     d="m 4.1636559,14.355648 a 0.484,0.657 0 0 0 -0.486,0.659 v 1.84 a 0.484,0.657 0 0 0 0.486,0.659 h 4.101 a 0.484,0.657 0 0 0 0.486,-0.659 v -1.84 a 0.484,0.657 0 0 0 -0.486,-0.659 z m 3.56,1.16 h -3.017 v 0.838 h 3.017 z"
     style="fill:#ffffff;fill-rule:evenodd;stroke-width:1.036"
     id="path4" />
  <g
     style="stroke-width:1.12604"
     id="g7"
     transform="translate(-0.91034412,-1.5923522)">
    <path
       d="m -9.408,-1.416 c -3.833,-0.025 -7.056,2.912 -7.08,6.615 -0.02,3.08 1.653,4.832 3.107,6.268 0.903,0.892 1.721,1.74 2.32,2.902 l -0.525,-0.004 c -0.543,-0.003 -0.992,0.304 -1.24,0.639 a 1.87,1.87 0 0 0 -0.362,1.121 l -0.011,1.877 c -0.003,0.402 0.104,0.787 0.347,1.125 0.244,0.338 0.688,0.653 1.23,0.656 l 4.142,0.028 c 0.542,0.003 0.99,-0.306 1.238,-0.641 a 1.87,1.87 0 0 0 0.363,-1.121 l 0.012,-1.875 a 1.87,1.87 0 0 0 -0.348,-1.127 c -0.243,-0.338 -0.688,-0.653 -1.23,-0.656 l -0.518,-0.004 c 0.597,-1.145 1.425,-1.983 2.348,-2.87 1.473,-1.414 3.18,-3.149 3.2,-6.226 -0.016,-3.59 -2.923,-6.684 -6.993,-6.707 m -0.006,1.1 v 0.002 c 3.274,0.02 5.92,2.532 5.9,5.6 -0.017,2.706 -1.39,4.026 -2.863,5.44 -1.034,0.994 -2.118,2.033 -2.814,3.633 -0.018,0.041 -0.052,0.055 -0.075,0.065 q -0.013,0.004 -0.02,0.01 a 0.34,0.34 0 0 1 -0.226,0.084 0.34,0.34 0 0 1 -0.224,-0.086 l -0.092,-0.077 c -0.699,-1.615 -1.768,-2.669 -2.781,-3.67 -1.454,-1.435 -2.797,-2.762 -2.78,-5.478 0.02,-3.067 2.7,-5.545 5.975,-5.523 m -0.02,2.826 c -1.62,-0.01 -2.944,1.315 -2.955,2.96 -0.01,1.646 1.295,2.988 2.916,2.999 h 0.002 C -7.85,8.479 -6.528,7.153 -6.518,5.508 -6.507,3.862 -7.812,2.52 -9.434,2.51 m -0.005,1.1 c 1.017,0.006 1.829,0.83 1.822,1.89 -0.007,1.06 -0.83,1.874 -1.848,1.867 -1.018,-0.006 -1.829,-0.83 -1.822,-1.89 0.007,-1.06 0.83,-1.874 1.848,-1.868 m -2.155,11.857 4.14,0.025 c 0.271,0.002 0.49,0.305 0.487,0.676 l -0.013,1.875 c -0.003,0.37 -0.224,0.67 -0.495,0.668 l -4.14,-0.025 c -0.27,-0.002 -0.487,-0.306 -0.485,-0.676 l 0.012,-1.875 c 0.003,-0.37 0.224,-0.67 0.494,-0.668"
       style="color:#000000;font-style:normal;font-variant:normal;font-weight:400;font-stretch:normal;font-size:medium;line-height:normal;font-family:sans-serif;font-variant-ligatures:normal;font-variant-position:normal;font-variant-caps:normal;font-variant-numeric:normal;font-variant-alternates:normal;font-feature-settings:normal;text-indent:0;text-align:start;text-decoration:none;text-decoration-line:none;text-decoration-style:solid;text-decoration-color:#000000;letter-spacing:normal;word-spacing:normal;text-transform:none;writing-mode:lr-tb;direction:ltr;text-orientation:mixed;dominant-baseline:auto;baseline-shift:baseline;text-anchor:start;white-space:normal;shape-padding:0;clip-rule:evenodd;display:inline;overflow:visible;visibility:visible;opacity:1;isolation:auto;mix-blend-mode:normal;color-interpolation:sRGB;color-interpolation-filters:linearRGB;solid-color:#000000;solid-opacity:1;vector-effect:none;fill:#000000;fill-opacity:0.4;fill-rule:evenodd;stroke:none;stroke-width:2.47728;stroke-linecap:butt;stroke-linejoin:miter;stroke-miterlimit:4;stroke-dasharray:none;stroke-dashoffset:0;stroke-opacity:1;color-rendering:auto;image-rendering:auto;shape-rendering:auto;text-rendering:auto"
       transform="matrix(0.88807,0,0,0.88807,15.553,2.85)"
       id="path5" />
    <path
       d="m -9.415,-0.316 c -3.275,-0.022 -5.955,2.456 -5.975,5.523 -0.017,2.716 1.326,4.041 2.78,5.477 1.013,1 2.081,2.055 2.78,3.67 l 0.092,0.076 a 0.34,0.34 0 0 0 0.225,0.086 0.34,0.34 0 0 0 0.227,-0.083 l 0.019,-0.01 c 0.022,-0.009 0.057,-0.024 0.074,-0.064 0.697,-1.6 1.78,-2.64 2.814,-3.634 1.473,-1.414 2.847,-2.733 2.864,-5.44 0.02,-3.067 -2.627,-5.58 -5.901,-5.601 m -0.057,8.784 c 1.621,0.011 2.944,-1.315 2.955,-2.96 0.01,-1.646 -1.295,-2.988 -2.916,-2.999 -1.622,-0.01 -2.945,1.315 -2.955,2.96 -0.01,1.645 1.295,2.989 2.916,3"
       style="clip-rule:evenodd;fill:#e1e3e9;fill-opacity:1;fill-rule:evenodd;stroke:none;stroke-width:2.47728;stroke-miterlimit:4;stroke-dasharray:none;stroke-opacity:0.4"
       transform="matrix(0.88807,0,0,0.88807,15.553,2.85)"
       id="path6" />
    <path
       d="m -11.594,15.465 c -0.27,-0.002 -0.492,0.297 -0.494,0.668 l -0.012,1.876 c -0.003,0.371 0.214,0.673 0.485,0.675 l 4.14,0.027 c 0.271,0.002 0.492,-0.298 0.495,-0.668 l 0.012,-1.877 c 0.003,-0.37 -0.215,-0.672 -0.485,-0.674 z"
       style="clip-rule:evenodd;fill:#ffffff;fill-opacity:1;fill-rule:evenodd;stroke:none;stroke-width:2.47728;stroke-miterlimit:4;stroke-dasharray:none;stroke-opacity:0.4"
       transform="matrix(0.88807,0,0,0.88807,15.553,2.85)"
       id="path7" />
  </g>
</svg>
