<svg width="70" height="70" viewBox="0 0 500 501" fill="none" xmlns="http://www.w3.org/2000/svg">
<circle cx="250" cy="250.383" r="250" fill="#285DAA"/>
<mask id="mask0_402_73" style="mask-type:alpha" maskUnits="userSpaceOnUse" x="0" y="0" width="500" height="501">
<circle cx="250" cy="250.383" r="250" fill="#285DAA"/>
</mask>
<g mask="url(#mask0_402_73)">
<path fill-rule="evenodd" clip-rule="evenodd" d="M144.897 176.674C144.897 122.386 192.043 78.2154 250 78.2154C307.957 78.2154 355.103 122.386 355.103 176.674C355.103 258.252 269.153 327.127 255.645 337.951C254.805 338.624 254.245 339.073 254.003 339.286C252.874 340.274 251.437 340.771 250 340.771C248.563 340.771 247.126 340.274 245.997 339.286C245.756 339.073 245.196 338.625 244.357 337.952C230.852 327.131 144.897 258.254 144.897 176.674ZM250 233.72C278.699 233.72 301.963 210.105 301.963 180.976C301.963 151.846 278.699 128.232 250 128.232C221.301 128.232 198.037 151.846 198.037 180.976C198.037 210.105 221.301 233.72 250 233.72Z" fill="#95BEFA"/>
<path fill-rule="evenodd" clip-rule="evenodd" d="M190.768 355.337C183.028 355.337 176.752 361.612 176.752 369.353V408.535C176.752 416.276 183.028 422.551 190.768 422.551H309.269C317.01 422.551 323.285 416.276 323.285 408.535V369.353C323.285 361.612 317.01 355.337 309.269 355.337H190.768ZM293.58 380.025H206.457V397.863H293.58V380.025Z" fill="white"/>
</g>
</svg>
