<?xml version="1.0" encoding="UTF-8" standalone="no"?>
<svg
   fill="none"
   viewBox="0 0 400 400"
   version="1.1"
   id="svg6"
   width="400"
   height="400"
   sodipodi:docname="maplibre-logo-blue-bgsvg.svg"
   inkscape:version="1.3.2 (091e20e, 2023-11-25)"
   xmlns:inkscape="http://www.inkscape.org/namespaces/inkscape"
   xmlns:sodipodi="http://sodipodi.sourceforge.net/DTD/sodipodi-0.dtd"
   xmlns="http://www.w3.org/2000/svg"
   xmlns:svg="http://www.w3.org/2000/svg">
  <sodipodi:namedview
     id="namedview1"
     pagecolor="#ffffff"
     bordercolor="#000000"
     borderopacity="0.25"
     inkscape:showpageshadow="2"
     inkscape:pageopacity="0.0"
     inkscape:pagecheckerboard="0"
     inkscape:deskcolor="#d1d1d1"
     inkscape:zoom="2.6025"
     inkscape:cx="202.4976"
     inkscape:cy="200"
     inkscape:window-width="2272"
     inkscape:window-height="1416"
     inkscape:window-x="0"
     inkscape:window-y="25"
     inkscape:window-maximized="0"
     inkscape:current-layer="layer4" />
  <g
     inkscape:groupmode="layer"
     id="layer4"
     inkscape:label="Layer 2">
    <rect
       style="fill:#285daa;stroke-width:1.16638;fill-opacity:1"
       id="rect2"
       width="400"
       height="400"
       x="0"
       y="0"
       inkscape:label="rect2" />
  </g>
  <g
     inkscape:groupmode="layer"
     id="layer3"
     inkscape:label="Layer 1">
    <g
       clip-path="url(#b)"
       id="g4"
       transform="translate(109.67945,56.092465)">
      <path
         fill="#82b4fe"
         fill-rule="evenodd"
         d="M 91.32,0.578 C 41.994,0.258 1.624,37.59 1.323,83.793 c -0.266,40.912 19.964,60.885 41.871,82.513 15.273,15.078 31.36,30.96 41.885,55.302 0.71,0.577 1.185,0.962 1.389,1.144 a 5.164,5.164 0 0 0 3.398,1.286 5.172,5.172 0 0 0 3.416,-1.241 c 0.055,-0.049 0.156,-0.092 0.28,-0.145 0.34,-0.146 0.857,-0.368 1.124,-0.983 10.49,-24.11 26.806,-39.778 42.388,-54.74 22.189,-21.307 42.888,-41.184 43.153,-81.972 C 180.528,38.753 140.647,0.9 91.32,0.578 Z m -0.86,132.349 c 24.424,0.159 44.356,-19.81 44.517,-44.602 0.161,-24.792 -19.509,-45.019 -43.934,-45.178 -24.425,-0.159 -44.356,19.81 -44.518,44.602 -0.161,24.792 19.509,45.019 43.934,45.178 z"
         clip-rule="evenodd"
         id="path3" />
      <path
         fill="#ffffff"
         fill-rule="evenodd"
         d="m 58.49,238.338 c -4.075,-0.027 -7.408,4.48 -7.444,10.065 l -0.184,28.269 c -0.037,5.585 3.237,10.134 7.313,10.161 l 62.385,0.406 c 4.075,0.026 7.408,-4.48 7.444,-10.065 l 0.184,-28.269 c 0.037,-5.586 -3.237,-10.135 -7.313,-10.161 z"
         clip-rule="evenodd"
         id="path4" />
    </g>
  </g>
  <defs
     id="defs6">
    <clipPath
       id="a">
      <path
         fill="#ffffff"
         d="M 0,0 H 1356 V 318 H 0 Z"
         id="path5" />
    </clipPath>
    <clipPath
       id="b">
      <path
         fill="#ffffff"
         d="M 0,0 H 1355.33 V 317.795 H 0 Z"
         id="path6" />
    </clipPath>
  </defs>
</svg>
